<svg xmlns="http://www.w3.org/2000/svg" viewBox="0 0 2049.23 4435.06"><defs><style>.cls-1{fill:#ffc729;}.cls-2{fill:#8b5c29;}.cls-3{fill:#0066b1;}.cls-4{fill:#ffd39f;}.cls-5{fill:#001423;}.cls-6{fill:#ffdebd;}.cls-7{fill:#ffbe78;}.cls-8{fill:#ffe9d2;}.cls-9{fill:#fcedc8;}.cls-10{fill:#f4ae00;}.cls-11{fill:#004875;}.cls-12{fill:#bbe5ff;}.cls-13,.cls-14,.cls-15{fill:none;stroke:#000;stroke-miterlimit:10;}.cls-14{stroke-width:25px;}.cls-15{stroke-width:20px;}</style></defs><g id="COLOR"><polygon class="cls-1" points="851.56 1325.89 866.24 1389.51 892.48 1434.19 936.18 1464.08 924.25 1601.92 916.75 1714.93 792.63 1646.51 788.57 1786.94 903.75 1832.44 1039.26 1848.95 1173.78 1836.44 1252.08 1799.64 1298.95 1773.94 1283 1652.78 1199.78 1703.93 1146.27 1711.21 1056.26 1731.93 1046.09 1651.42 1054.76 1478.41 1114.27 1467.91 1165.14 1437.23 1216.78 1373.58 1226.28 1309.24 1190.78 1288.97 1141.66 1319.65 1138.29 1332.52 1115.01 1358.24 1049.46 1389.51 989.36 1387.19 960.33 1374.92 945.84 1363.07 939.87 1355.16 866.57 1322.07 851.56 1325.89"/><polygon class="cls-2" points="833.46 887.37 786.56 864.28 748.08 812.75 748.08 766.2 770.11 711.63 805.52 689.22 808.35 726.82 840.29 747.19 886.16 724.95 910.99 689.22 948.29 665.36 991.19 673.08 1015.11 654.83 1063.15 609.05 1105.63 609.84 1152.75 630.62 1180.7 652.23 1217.61 665.36 1251.69 685.67 1289.04 753.51 1330.58 783.51 1375.84 864.66 1371.04 910.61 1354.24 994.51 1337.5 1026.86 1314.37 965.51 1264.44 913.74 1247.49 902.81 1268.42 869.44 1268.42 839.6 1247.49 807.97 1205.17 807.97 1166.38 817.96 1132.37 793.65 1100.15 773.96 1075.24 764.69 1045.85 781.72 1008.25 801.41 960.37 796.95 924.71 800.22 902.86 840.2 856.48 884.11 833.46 887.37"/><polygon class="cls-3" points="492.07 1599.55 525.97 1565.73 555.65 1511.6 555.65 1462.59 555.65 1402.99 548.2 1386.65 548.37 1334.65 614.4 1350.16 705.28 1354.3 814.76 1334.65 847.67 1308.7 852.8 1367.06 897.18 1432.58 943.26 1470.62 927.62 1584.33 919.59 1685.77 917.48 1704.01 788.57 1655.34 794.04 1560.46 702.95 1589.82 609.59 1610.89 535.06 1618.43 492.07 1599.55"/><polygon class="cls-3" points="784.04 1774.34 720.36 2166.46 906.97 2183.62 1028.18 1944.05 1080.13 1947.43 1195.01 2183.62 1372.85 2158.98 1298.95 1773.94 1252.08 1799.64 1139.6 1838.27 1039.26 1848.95 912.44 1836.76 784.04 1774.34"/><polygon class="cls-3" points="1054.76 1478.41 1050.76 1722.16 1180.27 1706.59 1283 1652.78 1279.35 1562.2 1497.28 1617.42 1562.68 1610.07 1526.79 1568.96 1498.78 1501.76 1493.67 1439.42 1511.17 1379.1 1502.49 1341.94 1415.68 1354.46 1261.73 1329.51 1228.16 1314.23 1202.53 1391.15 1149.46 1449.01 1054.76 1478.41"/><polygon class="cls-4" points="1506.23 1335.34 1541.74 1261.21 1557.05 1212.04 1557.62 1158.35 1555.22 1124.45 1578.81 1090.36 1615.43 1065.16 1669.86 1091.35 1686.53 1146.76 1678 1248.33 1735.06 1252.19 1777.94 1292.98 1777.94 1345.05 1786.27 1412.07 1775.36 1439.42 1775.36 1487.03 1764.74 1529.57 1757.65 1577.05 1679.17 1620.58 1634.66 1610.07 1583.81 1609.4 1562.68 1613.9 1548.5 1593.83 1506.23 1535.58 1493.67 1467.74 1506.23 1385.64 1506.23 1335.34"/><polygon class="cls-4" points="488.68 1610.89 472.15 1604.86 396.14 1622.04 352.88 1612.84 308.05 1589.12 286.41 1551.31 289.06 1512.71 277.66 1487.86 277.66 1430.35 259.56 1399.32 272.95 1354.3 270.1 1308.7 285.27 1267.88 357.91 1241.55 377.46 1241.55 371.08 1216.89 364.84 1147.68 398.7 1089.89 436.43 1071.7 485.82 1091.54 501.94 1130.67 501.94 1178.25 501.94 1221.15 533.36 1281.48 548.37 1334.65 548.37 1379.18 559.26 1414.44 559.26 1486.24 541.43 1540.61 488.68 1610.89"/><polygon class="cls-4" points="866.57 1322.07 803.22 1260.23 763.28 1171.24 742.46 1071.7 764.05 951.15 752.1 888.97 765.99 846.15 820.36 889.02 856.48 884.11 886.16 856 924.71 800.22 967.69 794.15 1006.24 807.89 1039.68 788.75 1069.51 774.09 1089.64 764.91 1129.47 807.04 1168.62 821.94 1207.71 815.86 1227.34 810.73 1263.91 813.29 1272.89 857.56 1254.93 900.14 1272.89 918.5 1333.83 1000.68 1330.58 1050.22 1325.21 1081.13 1351.15 1139.46 1324.33 1195.74 1265.23 1219.84 1241.45 1221.3 1179.87 1300.21 1148.51 1317.27 1142.64 1323.1 1135.47 1337.45 1092.35 1380.57 1000.57 1389.51 964.36 1373.83 944.51 1357.78 866.57 1322.07"/><polygon class="cls-5" points="903.5 2177.92 720.36 2166.46 663.33 2197.54 619.09 2244.28 613.49 2274.42 867.98 2269.8 906.97 2183.62 903.5 2177.92"/><polygon class="cls-5" points="1195.01 2183.62 1236.45 2274.42 1475.2 2269.8 1465.01 2238.28 1421.56 2183.62 1375.49 2164.01 1195.01 2183.62"/></g><g id="SHADOW"><path class="cls-6" d="M779.15,701.27s-19.86,59.24,6.19,101.48c21.08,34.18,69.68,37.39,95.95,7C891,798.59,902.5,783.3,916,762.39a47.09,47.09,0,0,1,54.19-19.16,129.3,129.3,0,0,0,36.58,6.49c30.46.8,57.94-19.19,65.51-48.7a85,85,0,0,0,2.6-19.13s0-64.49,74-54.08l-62.3-24.32-37.93,24L1000.06,670l-46.22-1.12-34.19,9.85-37.18,50.66-45.93,17.13-36.32-24.76V693.91Z"/><path class="cls-7" d="M873.93,873.14s27.6-22.47,62.49-34.82a74.73,74.73,0,0,1,51.71,1c11,4.2,27.63,8.32,50.79,8.25a71.93,71.93,0,0,1,33.72,7.9c8.7,4.57,17.61,11.62,23.14,22.46,0,0,7-26.91,39-32.51a40.56,40.56,0,0,1,40.15,16.16,52.4,52.4,0,0,1,6,11.09,48.84,48.84,0,0,1-1.34,38.16c-7.21,15.86-17.18,48.42-4.61,91,0,0,41.77,366.24-292.18,329.81l30.41,14.18,33.36,10.6,5.31,10.58,72.17,29,56.26-25.12,38-15.4,27.77-38,52.63-43.56,42.6-53.49,49.07-4.09,43.53-32.08,12.93-62.67-26.42-52.88,24.27-48.79-22.5-47.77-50-54.75L1242,896.71l35.26-37.36-11.9-33.05-38.07-17.58-47.41,18.73-43.53-18.73-45.88-48-43.12,18.47-45,38.2-35.58-18.74L923,800.17Z"/><path class="cls-8" d="M843.53,890.56s-137.94,180.06,39.2,441l-77.21-64.73-41-78-25.2-140.55,28.23-98.65-15.56-59,9.39-36.6,10.49-4.25Z"/><path class="cls-9" d="M937.91,1355s1.23,52.2,45.75,92.42c0,0-27.63,112.45-32,284.9,0,0-17.83-3.49-30.27-10.15l5.7-172.34,12.74-84.2-69-48.67L855,1371.07l-3.24-56.84,51.75,28.55Z"/><path class="cls-10" d="M1007.39,1391.15s33.63,58,97.74,73.59l49-19.42,61.83-68.77,14.16-67.31-40.4-17.88-45.66,22.87-6.38,19.11-35.77,37.54Z"/><path class="cls-11" d="M1098.7,1719.43s38.15-112.45,86.84-171l-15.52-109,9.15-2s57.91,104.88,288.2,88.13l26.3,60.68,24.2,31.65-202-39.44-34.52-15.27,6.75,91.82-71.21,28.87Z"/><path class="cls-11" d="M1221.89,1348.51S1332,1424.37,1500.37,1408l9.25-36.86-11.95-26.07-115.84,6.54-99-20-55.06-11.16Z"/><path class="cls-11" d="M1467.37,1525.52s22.65-.55,38.86-7.32l30,54.76,32,37.11-57-.81-26.51-37.11Z"/><path class="cls-7" d="M1518.45,1298.44s91.7-43.36,97-135.62a83.34,83.34,0,0,0-6.81-38.86c-6.66-14.88-19.18-30.64-41.55-25l30.72-24.09h51.8l33.77,64.05-12.06,113.29-13.44,12.12s-23.43,33.08,14.82,68.91l-14.13,11.83s-27.56,39.34,12.4,78.7l-10,10.07s-31.42,45.56,13.23,81.7l-11.51,10s-13.88,25.13,8.2,35.5a31.85,31.85,0,0,0,15.91,2.78c15.24-1.14,56.93-6,84.66-26l-24.52,44.93L1681,1613.9l-60.38-10.13-31.66-5.33-22.5,3.25-38.17-31.37-22.09-70.43-8.4-23.09,8.4-77.24,3.39-35.52-.32-36.51Z"/><path class="cls-9" d="M880.15,1703.07s-10.72,73.25,0,122.83l-89.57-47.41-2.21-130.34Z"/><path class="cls-12" d="M860.49,1680.74S820.41,1569,849,1433.74l-34.24,15.38L802,1552.33l-7.27,110.34Z"/><path class="cls-12" d="M550,1393.34s190.81,35.33,301.77-42.57v-36.54L811,1322l-120.2,28.81-131.58-8Z"/><path class="cls-7" d="M478.6,1085.15s-30.26,39-28.6,102.62a80.67,80.67,0,0,1-10.4,42.52,68.9,68.9,0,0,1-25.2,25.56H394.28s33.53,45.18-7.15,80.41c0,0,38.81,54.69-5.66,90.29,0,0,43.95,41.16,3.91,93.44,0,0,14.7,15.36,6.9,28.16a16.55,16.55,0,0,1-12.28,7.62c-16.75,2-70.4,5.69-89.51-23.77l7.27,38.59,47.76,42.06h73.07l55.35-6.28,29.74-11.11,25.3-38.59,28-63,2.28-59.44-14.15-41.44,1.49-64.06-37.1-81.66-16.89-43.43,7.59-68Z"/><path class="cls-11" d="M554.69,1518.2s128.47,29.6,248.5-10.21l-14.82,65.75L700.87,1595l-120.25,20.39-89.26-4.46L542,1553.83Z"/><polygon class="cls-12" points="822.1 1795.17 754.13 2166.46 723.46 2166.46 783.69 1784.4 822.1 1795.17"/><polygon class="cls-11" points="1004.76 1944.05 973.56 1930.54 831.79 2166.46 918.27 2175.42 1014.14 1949.42 1004.76 1944.05"/><path class="cls-13" d="M755.1,2175.42s-99.13,2.65-115.45,97.5H612.31l41.62-85.06,69.53-21.4Z"/><polygon class="cls-11" points="1191.03 1831.41 1314.88 2170.07 1371.64 2157.19 1298.95 1784.4 1191.03 1831.41"/><polygon class="cls-10" points="1191.03 1821.07 1191.03 1696.73 1284.64 1664.54 1289.81 1776.65 1191.03 1821.07"/></g><g id="SKETCH"><path class="cls-14" d="M815.39,672.44s-117.8,64.69-48,171.81c0,0-34.86,43.12.22,105.34,0,0-85.42,208.09,77.53,357,0,0-133.81,96-296.75,28.05,0,0-11.82-42.88-36.43-83.31a99.62,99.62,0,0,1-11.55-74.42c3.19-13.72,5.29-29.53,3.86-45.09-4.24-46.48-53.6-74.26-95.06-52.84-16.42,8.48-32.29,24.23-40.83,53a126.33,126.33,0,0,0-2.84,58.71c3.23,17.62,8.6,42.21,15.22,54.61,0,0-144.31-9-110.64,113.69,0,0-28.17,47.8,7.56,83.54,0,0-28.17,50.85,17.87,79.71,0,0-22.58,46.28,25.87,77.46a100.7,100.7,0,0,0,31.48,13.14c22.25,5.26,67.2,11.46,107.57-10.2,0,0,157.56,36.32,330.77-37.49l-7.87,229.31-63,372S622,2178.27,614.07,2269.8H870l153.53-325.75h49.2L1239,2269.8h236.2s-14.76-90.54-102.35-106.29L1300,1781.66l-20.67-219.46s156.48,76.76,327.72,43.3c0,0,110.23,36.41,150.58-38.38,0,0,10.82-21.65,0-43.3,0,0,44.28-26.58,13.78-87.59,0,0,35.42-27.56,3.93-83.65,0,0,22.78-32.16-3-68.83a80.73,80.73,0,0,0-58.16-33.56,125.57,125.57,0,0,0-37.29,2s26.93-91.92-3-147.19c-31.21-57.74-119.5-36.13-119.5,29.51,0,1.3,0,2.64.08,4a97.84,97.84,0,0,0,3,19.84c.78,3.07,1.8,7.49,2.77,12.89A123.11,123.11,0,0,1,1534.5,1271c-13.74,16.73-24.26,43.24-28.27,74.06,0,0-213.1,36.63-319.27-56.08,0,0,41.87-41.3,55.93-71.88a98.69,98.69,0,0,0,19.27,2.66c66.52,3.14,109.64-70.39,72.93-126a110.62,110.62,0,0,0-17.59-20.41s70.1-107.82,50.35-214.18a128.37,128.37,0,0,0-52.61-81.89c-14-9.71-29.68-23.85-36.83-41.55,0,0-17-82.4-94.64-72.18,0,0-31.33-49.65-82.07-54.2,0,0-51.44-7.7-89.87,50.17-6.81,10.27-19.21,15.19-31.19,14.12A34.64,34.64,0,0,1,973,672c-8.66-2.85-49-13.27-74.46,30a83,83,0,0,0-5.13,10.51c-2.42,5.85-9.85,20.12-27.78,29.91-30,16.4-66.28-8.91-60.4-42.63C806.63,691.79,809.79,682.69,815.39,672.44Z"/><path class="cls-14" d="M767.37,844.25s84.49,112,140.6-24c0,0,18.66-42.52,72.69-15.94a40.71,40.71,0,0,0,46.63-7.27c8.84-8.71,19.7-18.3,31.09-25.81a42.73,42.73,0,0,1,55.43,7.38c6.08,6.84,13.49,15.56,22.16,26.4a45.52,45.52,0,0,0,52.9,13.63c11.46-4.72,25-8.91,38.42-9.88,26.42-1.89,48.56,20.25,46.28,46.64-1.37,16-8.66,33.92-31.18,44.78,0,0,84.22,39.18,95.11,136"/><path d="M1315.1,1026.86c-23.45-33.48-44.17-69.08-75.22-96.09a160.46,160.46,0,0,0-18.57-13.42,64.48,64.48,0,0,1,18.36,5.09c37.78,16.71,67.8,64.79,75.43,104.42Z"/><path d="M1297.25,1025.91c-13.23-19-27.19-37.33-43.17-54-2-2-4-4.08-6-6.15-2.89-2.67-5.8-5.72-8.69-8.39-5.14-4.87-10.48-9.45-15.54-14.46,34.91,10.15,67.81,47,73.37,83Z"/><path d="M1282,1026.86c-10.62-9.72-19.65-20.41-29-31s-18-21-29-30.17a35.08,35.08,0,0,1,10.49,3.51c20.83,10.78,39.86,35.78,47.61,57.71Z"/><path class="cls-14" d="M767.59,949.59s21.44-55.17,37.93-71.7"/><path d="M839.22,939.47c4-13.36,11.28-26,21.81-35.34,5.78-5.3,12.46-11.69,21.28-11.19,9,.15,18.08,5,21.08,14l-1.06,2.26c-4.33,2-7.38,3.41-9.94,4.82-3.69,2-5.79,3.76-9.3,4.83-3,.72-6.14.44-9.14,1.32-11.76,4.29-22.65,12.35-32.59,20.6l-2.14-1.3Z"/><path d="M1135.27,940.76c-8.56-7.51-17-14.31-26.89-19.61-3.28-1.91-7.61-3.34-11.07-3a13.56,13.56,0,0,1-2.71,0c-2.91-.6-3.93-2-7.78-2.72-2.72-.59-6.14-.58-11-.77L1074,912.9c-.7-10.18,7.31-18.68,17.32-20.45,7.34-1.57,14.5,1.53,19.9,6.31,10.54,8.27,17.89,19,22.77,30.9a79.28,79.28,0,0,1,3.43,9.82l-2.15,1.28Z"/><ellipse cx="863.56" cy="1007.38" rx="22.6" ry="44.86"/><ellipse cx="1097.53" cy="1007.38" rx="22.6" ry="44.86"/><path d="M978.49,988.56c-.2,20.31-5.91,40-14.27,58.42a141.63,141.63,0,0,1-15.81,26.41c-6.65,8.7-14.22,16.34-23.63,22.32l2.89-15.83c10.27,18.23,19.55,37.34,24.85,57.77a139.49,139.49,0,0,1-12.42-10.28c-14-12.75-26.32-27.58-37.78-42.56,9.48-8,18.57-16.27,26.33-26.68,17.53-22.65,31.59-47,49.84-69.57Z"/><path d="M831.1,1147.92c77,48.82,143.18,57.95,226.17,16.56,11-5.19,21.51-11.08,32.37-16.56a167.46,167.46,0,0,1-31.75,34.07c-48.93,40.68-116.74,49.2-172.63,17.46-21.55-12.27-41.77-29.88-54.16-51.53Z"/><path d="M861.49,1139.46c-9,10.06-15.13,17.94-17.81,31-2.29,10.61-2.69,21.94-5.75,32.61-18.92-10.35-25.16-37.74-11.3-54.73,8.1-10.24,23.1-15,34.86-8.83Z"/><path d="M1054.11,1137.65c12.21-7.54,28.65-4.05,39,5.38,17.56,15.6,17.86,45.3,1.54,61.81-5.81-12.09-9.14-27.49-15-38.83-5.3-11.34-15.33-20.61-25.6-28.36Z"/><path d="M929.62,1245.94c9.24-10,24.08-13.08,36.65-8.26a31.91,31.91,0,0,1,12.22,8.26,32,32,0,0,1-12.22,8.27c-12.57,4.82-27.41,1.75-36.65-8.27Z"/><path d="M1195.2,1298.36c-26.7,17.37-60.93,28.17-92.53,30.68l-6.31.47a204.81,204.81,0,0,0,23.43-8.89,199.18,199.18,0,0,0,41.8-25.38,149.38,149.38,0,0,0,16.37-14.79,9.72,9.72,0,0,0,.75-.88l16.49,18.79Z"/><path class="cls-14" d="M851.93,1312s-11.39,113.66,87.94,153.63c0,0-27.8,142.45-18.42,245.59,0,0-93-24.88-132.88-68.93"/><path class="cls-14" d="M1223.85,1314.23S1225.14,1466.69,1052,1476c0,0-13.39,142.91,0,246.15,0,0,143.84,2.71,235.5-73"/><path class="cls-14" d="M784,1774.34s260.39,176.43,514.91-4"/><polygon points="1020.21 1956.11 973.56 1930.54 1026.74 1931.98 1020.21 1956.11 1020.21 1956.11"/><polygon points="1068.93 1932.12 1115.55 1930.54 1076.44 1955.97 1068.93 1932.12 1068.93 1932.12"/><line class="cls-14" x1="720.36" y1="2166.46" x2="912.44" y2="2179.65"/><line class="cls-14" x1="1372.85" y1="2163.51" x2="1195" y2="2183.62"/><path d="M926.75,1342.29c22.36,15.15,46.26,28.15,72.65,33,42.36,7.29,86.81-4.51,120.53-31.43,10.94-9.26,19.77-20.62,28.8-31.8a116.86,116.86,0,0,1-17.06,39.76c-29.93,42.62-88.31,60.15-137.43,44.15-27.76-8.84-52.67-28.81-67.49-53.64Z"/><path class="cls-15" d="M570,1342.78s81.74,169.21-39.36,268.11"/><path d="M560.72,1332.71c2,42.06-7.79,94.88-42.93,121.88a85.76,85.76,0,0,1-15.85,9.39,84.3,84.3,0,0,0,13.76-11.71c16.17-17.37,23-41.14,24.39-64.35a188,188,0,0,0-3.2-47.47c-.19-.87-.62-3.07-.87-3.86l24.7-3.88Z"/><path class="cls-14" d="M380.74,1245.3s75.48,16.47,105.42,60.38c11.24,16.48,12.84,38,3,55.29a42.42,42.42,0,0,1-10.54,12.51s39.54,34.3,6.67,85.26c0,0,33.82,43.35-17.62,76.22,0,0,29.43,41-7.2,67.68"/><path class="cls-14" d="M270.1,1359s107.08-62.37,208.5,14.49"/><path class="cls-14" d="M277.66,1442.53s124.19-51.54,207.61,16.21"/><path class="cls-14" d="M295.53,1522.24s98-28.33,172.12,12.72"/><path d="M555.87,1388c14.21,41.81,17.47,90.93,4.37,133.41a173.14,173.14,0,0,1-9.59,24.43c-1.35,2.58-3.38,6.36-4.75,9-2.11,3.45-4.2,6.93-6.45,10.31a175.7,175.7,0,0,1-31.15,34.35c-1.55,1.26-6.37,5-7.91,6.21-3.76,3-9.21,6.37-13.16,9.16l-10.62-16.94c3.62-2.47,8.56-5.48,11.94-8.1a153.35,153.35,0,0,0,35.1-35.49c2-2.94,3.88-6,5.79-9,.86-1.57,2.58-4.7,3.43-6.27a35.35,35.35,0,0,0,1.63-3.18c1.87-3.83,4.22-9.23,5.67-13.16,13.64-36.57,12.89-77.31,3.81-114.92-1.14-4.61-2.47-9.36-4-13.8l15.89-6Z"/><path class="cls-15" d="M1479.52,1348.51S1401,1507.41,1524,1613.9"/><path d="M1518.71,1344.34a244.09,244.09,0,0,0,1.7,33.08c2.61,22.35,7.74,44.69,17.48,65.1a114.1,114.1,0,0,0,19.15,28.4c-28.71-21.7-44.51-56-55-89.64a283.45,283.45,0,0,1-7.53-30.77c-.23-1.37-.6-3.27-.78-4.75l25-1.42Z"/><path class="cls-15" d="M1511.18,1379.1s-17.3,31.32-17.51,78.85a184,184,0,0,0,46.49,123c10.8,12.14,23.84,23.24,38.65,29.11"/><path class="cls-14" d="M1677,1252.19s-80.7,8.76-108.68,65.61a56.72,56.72,0,0,0-3.69,41.92c1.73,5.52,4.37,10.75,8.4,13.86,0,0-39.57,32.87-4.69,81.17,0,0-36.65,42.93,10.52,80.83,0,0-19.82,44.59,28.26,69.92"/><path class="cls-14" d="M1775.36,1352.58s-91-50.32-202.38,21"/><path class="cls-14" d="M1771.43,1436.23s-95.37-38-203.14,18.52"/><path class="cls-14" d="M1757.65,1523.82s-101.65-25.14-178.84,11.76"/><polygon points="778.97 1562.66 814.79 1449.12 803.47 1567.64 778.97 1562.66 778.97 1562.66"/><path d="M854,1297.77a36.24,36.24,0,0,0,3.9,3.94,132.71,132.71,0,0,0,23.77,16.63c17.44,9.78,37.33,16.75,56.87,21.68,4.36,1,12,2.57,16.36,3.54l2.36.38,14.25,2.27c6.37.74,12.78,1.39,19.21,2.09-6.43.34-12.89.73-19.37,1l-17.06.05c-4.62-.27-12.54-.54-17.11-.88-4.77-.51-9.94-1-14.69-1.53l-9.78-1.53c-24.83-4.34-50.19-12-71.48-26.26-1.38-1-2.82-2-4.14-3.08l-.79-.69,17.7-17.65Z"/></g></svg>